<svg xmlns="http://www.w3.org/2000/svg" viewBox="0 0 101 101" id="sound"><path d="M67.5 16.7c-.8-.4-1.7-.4-2.5.1L37 35.4v-.8c0-1.3-1.1-2.4-2.4-2.4H18.8c-1.3 0-2.4 1.1-2.4 2.4v31.7c0 1.3 1.1 2.4 2.4 2.4h15.8c1.3 0 2.4-1.1 2.4-2.4v-.8l28 18.6c.4.3.9.4 1.3.4s.8-.1 1.1-.3c.8-.4 1.3-1.2 1.3-2.1V18.8c.1-.9-.4-1.7-1.2-2.1zM32.3 63.9h-11V37.1h11v26.8zM64 77.7L37.1 59.8V41.2L64 23.3v54.4zM82.2 32.3c-1.3 0-2.4 1.1-2.4 2.4v31.7c0 1.3 1.1 2.4 2.4 2.4s2.4-1.1 2.4-2.4V34.7c0-1.4-1.1-2.4-2.4-2.4z"></path></svg>